<svg width="39" height="39" viewBox="0 0 39 39" fill="none" xmlns="http://www.w3.org/2000/svg">
<circle cx="19.5" cy="19.5" r="19.5" fill="url(#paint0_linear_396_1843)"/>
<path d="M14.6191 24.0879C13.3086 24.0879 12.4134 24.0771 11.9336 24.0557L11.6221 24.7969C11.529 25.0046 11.443 25.223 11.3643 25.4521C11.1995 25.8962 10.9704 26.1182 10.6768 26.1182C10.5407 26.1182 10.4297 26.0752 10.3438 25.9893C10.2578 25.9033 10.2148 25.8138 10.2148 25.7207C10.2148 25.5632 10.2829 25.3877 10.4189 25.1943C10.6338 24.8936 10.8451 24.4997 11.0527 24.0127C10.4368 23.9554 10.1289 23.7764 10.1289 23.4756C10.1289 23.1748 10.3044 23.0244 10.6553 23.0244C10.8701 23.0244 11.1208 23.0602 11.4072 23.1318L16.7676 10.1123L24.1152 26H18.5186L17.627 24.0879H14.6191ZM12.2773 23.2178C12.9648 23.2751 13.5807 23.3037 14.125 23.3037H17.2725L14.5869 17.5137L12.2773 23.2178ZM25.8018 24.8291C25.6943 24.5426 25.6406 24.2419 25.6406 23.9268C25.6406 23.6117 25.7015 23.3252 25.8232 23.0674C25.9521 22.8024 26.1312 22.5697 26.3604 22.3691C26.8473 21.9323 27.4561 21.7139 28.1865 21.7139C28.9385 21.7139 29.5472 21.9609 30.0127 22.4551C30.4424 22.9062 30.6572 23.4362 30.6572 24.0449C30.6572 24.6536 30.4137 25.1621 29.9268 25.5703C29.4255 25.9928 28.8239 26.2041 28.1221 26.2041C26.9333 26.2041 26.1598 25.7458 25.8018 24.8291Z" fill="white"/>
<defs>
<linearGradient id="paint0_linear_396_1843" x1="19.5" y1="0" x2="19.5" y2="39" gradientUnits="userSpaceOnUse">
<stop offset="0.0528846" stop-color="#4183F3"/>
<stop offset="0.283654" stop-color="#F7B809"/>
<stop offset="0.701923" stop-color="#E64236"/>
<stop offset="0.942308" stop-color="#35A551"/>
</linearGradient>
</defs>
</svg>
