<svg width="156" height="19" viewBox="0 0 156 19" fill="none" xmlns="http://www.w3.org/2000/svg">
<path d="M1.424 15V3.8H5.2C5.94667 3.8 6.60267 3.94933 7.168 4.248C7.744 4.536 8.192 4.94133 8.512 5.464C8.84267 5.976 9.008 6.57333 9.008 7.256C9.008 7.928 8.832 8.52533 8.48 9.048C8.13867 9.57067 7.66933 9.98133 7.072 10.28C6.47467 10.568 5.80267 10.712 5.056 10.712H2.992V15H1.424ZM7.68 15L5.024 10.424L6.272 9.592L9.456 15H7.68ZM2.992 9.272H5.344C5.728 9.272 6.06933 9.18667 6.368 9.016C6.67733 8.83467 6.92267 8.59467 7.104 8.296C7.296 7.98667 7.392 7.64 7.392 7.256C7.392 6.65867 7.184 6.17333 6.768 5.8C6.352 5.42667 5.81333 5.24 5.152 5.24H2.992V9.272ZM14.6858 15.192C13.9071 15.192 13.2191 15.016 12.6218 14.664C12.0244 14.3013 11.5551 13.8053 11.2138 13.176C10.8724 12.5467 10.7018 11.8213 10.7018 11C10.7018 10.1787 10.8724 9.45333 11.2138 8.824C11.5551 8.19467 12.0244 7.704 12.6218 7.352C13.2298 6.98933 13.9231 6.808 14.7018 6.808C15.4378 6.808 16.0831 6.99467 16.6378 7.368C17.1924 7.73067 17.6244 8.25333 17.9338 8.936C18.2538 9.608 18.4138 10.4027 18.4138 11.32H11.9498L12.2378 11.08C12.2378 11.6453 12.3498 12.136 12.5738 12.552C12.7978 12.968 13.1018 13.288 13.4858 13.512C13.8698 13.7253 14.3071 13.832 14.7977 13.832C15.3311 13.832 15.7738 13.7093 16.1258 13.464C16.4884 13.208 16.7711 12.888 16.9738 12.504L18.2858 13.112C18.0724 13.528 17.7951 13.896 17.4538 14.216C17.1124 14.5253 16.7071 14.7653 16.2378 14.936C15.7791 15.1067 15.2618 15.192 14.6858 15.192ZM12.3338 10.36L12.0298 10.12H17.0858L16.7978 10.36C16.7978 9.89067 16.7018 9.49067 16.5098 9.16C16.3178 8.81867 16.0618 8.56267 15.7418 8.392C15.4218 8.21067 15.0644 8.12 14.6698 8.12C14.2858 8.12 13.9124 8.21067 13.5498 8.392C13.1978 8.56267 12.9044 8.81333 12.6698 9.144C12.4458 9.47467 12.3338 9.88 12.3338 10.36ZM22.1774 15L25.3774 7H26.9614L23.6174 15H22.1774ZM22.0814 15L18.7534 7H20.3054L23.5054 15H22.0814ZM28.2458 15V7H29.7658V15H28.2458ZM29.0138 5.304C28.7684 5.304 28.5551 5.21333 28.3738 5.032C28.1924 4.84 28.1018 4.62133 28.1018 4.376C28.1018 4.12 28.1924 3.90667 28.3738 3.736C28.5551 3.55467 28.7684 3.464 29.0138 3.464C29.2698 3.464 29.4831 3.55467 29.6538 3.736C29.8351 3.90667 29.9258 4.12 29.9258 4.376C29.9258 4.62133 29.8351 4.84 29.6538 5.032C29.4831 5.21333 29.2698 5.304 29.0138 5.304ZM35.5295 15.192C34.7508 15.192 34.0628 15.016 33.4655 14.664C32.8682 14.3013 32.3988 13.8053 32.0575 13.176C31.7162 12.5467 31.5455 11.8213 31.5455 11C31.5455 10.1787 31.7162 9.45333 32.0575 8.824C32.3988 8.19467 32.8682 7.704 33.4655 7.352C34.0735 6.98933 34.7668 6.808 35.5455 6.808C36.2815 6.808 36.9268 6.99467 37.4815 7.368C38.0362 7.73067 38.4682 8.25333 38.7775 8.936C39.0975 9.608 39.2575 10.4027 39.2575 11.32H32.7935L33.0815 11.08C33.0815 11.6453 33.1935 12.136 33.4175 12.552C33.6415 12.968 33.9455 13.288 34.3295 13.512C34.7135 13.7253 35.1508 13.832 35.6415 13.832C36.1748 13.832 36.6175 13.7093 36.9695 13.464C37.3322 13.208 37.6148 12.888 37.8175 12.504L39.1295 13.112C38.9162 13.528 38.6388 13.896 38.2975 14.216C37.9562 14.5253 37.5508 14.7653 37.0815 14.936C36.6228 15.1067 36.1055 15.192 35.5295 15.192ZM33.1775 10.36L32.8735 10.12H37.9295L37.6415 10.36C37.6415 9.89067 37.5455 9.49067 37.3535 9.16C37.1615 8.81867 36.9055 8.56267 36.5855 8.392C36.2655 8.21067 35.9082 8.12 35.5135 8.12C35.1295 8.12 34.7562 8.21067 34.3935 8.392C34.0415 8.56267 33.7482 8.81333 33.5135 9.144C33.2895 9.47467 33.1775 9.88 33.1775 10.36ZM47.8371 15L50.5411 7H52.0611L49.3411 15H47.8371ZM42.4451 15L45.1011 7H46.4771L43.8531 15H42.4451ZM42.3331 15L39.6131 7H41.1491L43.7891 15H42.3331ZM47.8371 15L45.2131 7H46.6051L49.2451 15H47.8371ZM56.6076 15.192C55.829 15.192 55.141 15.016 54.5436 14.664C53.9463 14.3013 53.477 13.8053 53.1356 13.176C52.7943 12.5467 52.6236 11.8213 52.6236 11C52.6236 10.1787 52.7943 9.45333 53.1356 8.824C53.477 8.19467 53.9463 7.704 54.5436 7.352C55.1516 6.98933 55.845 6.808 56.6236 6.808C57.3596 6.808 58.005 6.99467 58.5596 7.368C59.1143 7.73067 59.5463 8.25333 59.8556 8.936C60.1756 9.608 60.3356 10.4027 60.3356 11.32H53.8716L54.1596 11.08C54.1596 11.6453 54.2716 12.136 54.4956 12.552C54.7196 12.968 55.0236 13.288 55.4076 13.512C55.7916 13.7253 56.229 13.832 56.7196 13.832C57.253 13.832 57.6956 13.7093 58.0476 13.464C58.4103 13.208 58.693 12.888 58.8956 12.504L60.2076 13.112C59.9943 13.528 59.717 13.896 59.3756 14.216C59.0343 14.5253 58.629 14.7653 58.1596 14.936C57.701 15.1067 57.1836 15.192 56.6076 15.192ZM54.2556 10.36L53.9516 10.12H59.0076L58.7196 10.36C58.7196 9.89067 58.6236 9.49067 58.4316 9.16C58.2396 8.81867 57.9836 8.56267 57.6636 8.392C57.3436 8.21067 56.9863 8.12 56.5916 8.12C56.2076 8.12 55.8343 8.21067 55.4716 8.392C55.1196 8.56267 54.8263 8.81333 54.5916 9.144C54.3676 9.47467 54.2556 9.88 54.2556 10.36ZM67.6933 15L67.6293 13.512V3.8H69.1333V15H67.6933ZM65.0052 15.192C64.2799 15.192 63.6453 15.016 63.1013 14.664C62.5679 14.312 62.1466 13.8213 61.8372 13.192C61.5386 12.5627 61.3893 11.832 61.3893 11C61.3893 10.1573 61.5386 9.42667 61.8372 8.808C62.1466 8.17867 62.5679 7.688 63.1013 7.336C63.6453 6.984 64.2799 6.808 65.0052 6.808C65.6773 6.808 66.2586 6.984 66.7493 7.336C67.2506 7.688 67.6346 8.17867 67.9013 8.808C68.1679 9.42667 68.3013 10.1573 68.3013 11C68.3013 11.832 68.1679 12.5627 67.9013 13.192C67.6346 13.8213 67.2506 14.312 66.7493 14.664C66.2586 15.016 65.6773 15.192 65.0052 15.192ZM65.3573 13.816C65.8053 13.816 66.1999 13.6987 66.5413 13.464C66.8826 13.2187 67.1493 12.888 67.3413 12.472C67.5333 12.0453 67.6293 11.5547 67.6293 11C67.6293 10.4453 67.5333 9.96 67.3413 9.544C67.1493 9.11733 66.8826 8.78667 66.5413 8.552C66.1999 8.30667 65.7999 8.184 65.3413 8.184C64.8719 8.184 64.4559 8.30667 64.0933 8.552C63.7306 8.78667 63.4479 9.11733 63.2453 9.544C63.0426 9.96 62.9413 10.4453 62.9413 11C62.9413 11.5547 63.0426 12.0453 63.2453 12.472C63.4586 12.888 63.7466 13.2187 64.1093 13.464C64.4719 13.6987 64.8879 13.816 65.3573 13.816ZM75.1497 15V3.8H76.6698V13.512L76.5898 15H75.1497ZM79.2938 15.192C78.6218 15.192 78.0351 15.016 77.5338 14.664C77.0431 14.312 76.6644 13.8213 76.3978 13.192C76.1311 12.5627 75.9978 11.832 75.9978 11C75.9978 10.1573 76.1311 9.42667 76.3978 8.808C76.6644 8.17867 77.0431 7.688 77.5338 7.336C78.0351 6.984 78.6218 6.808 79.2938 6.808C80.0084 6.808 80.6378 6.984 81.1818 7.336C81.7258 7.688 82.1471 8.17867 82.4458 8.808C82.7551 9.42667 82.9097 10.1573 82.9097 11C82.9097 11.832 82.7551 12.5627 82.4458 13.192C82.1471 13.8213 81.7258 14.312 81.1818 14.664C80.6378 15.016 80.0084 15.192 79.2938 15.192ZM78.9258 13.816C79.4058 13.816 79.8271 13.6987 80.1898 13.464C80.5524 13.2187 80.8351 12.888 81.0378 12.472C81.2511 12.0453 81.3578 11.5547 81.3578 11C81.3578 10.4453 81.2564 9.96 81.0538 9.544C80.8511 9.11733 80.5684 8.78667 80.2058 8.552C79.8431 8.30667 79.4218 8.184 78.9418 8.184C78.5044 8.184 78.1098 8.30667 77.7578 8.552C77.4164 8.78667 77.1498 9.11733 76.9578 9.544C76.7658 9.97067 76.6698 10.456 76.6698 11C76.6698 11.5547 76.7658 12.0453 76.9578 12.472C77.1498 12.888 77.4164 13.2187 77.7578 13.464C78.0991 13.6987 78.4884 13.816 78.9258 13.816ZM85.2976 18.392C85.063 18.392 84.8016 18.3493 84.5136 18.264C84.2363 18.1787 83.9483 18.0667 83.6496 17.928L84.2096 16.68C84.4443 16.7867 84.647 16.8667 84.8176 16.92C84.999 16.9733 85.143 17 85.2496 17C85.5163 17 85.7403 16.9253 85.9216 16.776C86.1136 16.6267 86.2683 16.4187 86.3856 16.152L87.3136 13.96L90.1616 7H91.7936L88.0016 15.992C87.799 16.4827 87.5856 16.9093 87.3616 17.272C87.1376 17.6347 86.8603 17.912 86.5296 18.104C86.2096 18.296 85.799 18.392 85.2976 18.392ZM86.8976 15L83.3936 7H85.0096L87.9056 13.944L88.3696 15H86.8976ZM104.981 15L100.549 3.8H102.149L106.661 15H104.981ZM95.9565 15L100.469 3.8H102.069L97.6365 15H95.9565ZM98.0845 12.008V10.6H104.533V12.008H98.0845ZM110.941 15.192C110.141 15.192 109.522 14.9893 109.085 14.584C108.648 14.168 108.429 13.576 108.429 12.808V4.504H109.949V12.584C109.949 12.9787 110.045 13.2827 110.237 13.496C110.44 13.6987 110.728 13.8 111.101 13.8C111.208 13.8 111.325 13.7787 111.453 13.736C111.581 13.6933 111.736 13.608 111.917 13.48L112.493 14.664C112.216 14.8453 111.949 14.9787 111.693 15.064C111.448 15.1493 111.197 15.192 110.941 15.192ZM107.069 8.312V7H112.221V8.312H107.069ZM113.993 15V3.8H115.514V15H113.993ZM122.531 15L122.467 13.608V10.824C122.467 10.2373 122.397 9.74667 122.259 9.352C122.131 8.95733 121.928 8.65867 121.651 8.456C121.384 8.25333 121.027 8.152 120.579 8.152C120.163 8.152 119.8 8.23733 119.491 8.408C119.192 8.57867 118.941 8.84533 118.739 9.208L117.395 8.696C117.587 8.33333 117.827 8.01333 118.115 7.736C118.403 7.448 118.749 7.224 119.155 7.064C119.56 6.89333 120.035 6.808 120.579 6.808C121.336 6.808 121.965 6.95733 122.467 7.256C122.968 7.55467 123.341 7.98667 123.587 8.552C123.843 9.11733 123.965 9.816 123.955 10.648L123.939 15H122.531ZM120.179 15.192C119.229 15.192 118.488 14.9787 117.955 14.552C117.432 14.1147 117.171 13.512 117.171 12.744C117.171 11.9227 117.443 11.2987 117.987 10.872C118.541 10.4347 119.309 10.216 120.291 10.216H122.515V11.416H120.707C119.971 11.416 119.453 11.5333 119.155 11.768C118.856 11.992 118.707 12.3067 118.707 12.712C118.707 13.0853 118.845 13.3787 119.123 13.592C119.411 13.7947 119.805 13.896 120.307 13.896C120.744 13.896 121.123 13.8053 121.443 13.624C121.763 13.432 122.013 13.1653 122.195 12.824C122.376 12.4827 122.467 12.0933 122.467 11.656H122.995C122.995 12.744 122.76 13.608 122.291 14.248C121.832 14.8773 121.128 15.192 120.179 15.192ZM128.733 15.192C128.167 15.192 127.661 15.1067 127.213 14.936C126.775 14.7653 126.402 14.536 126.093 14.248C125.794 13.96 125.57 13.6347 125.421 13.272L126.733 12.696C126.903 13.0267 127.159 13.2987 127.501 13.512C127.842 13.7253 128.221 13.832 128.637 13.832C129.095 13.832 129.474 13.7467 129.773 13.576C130.071 13.4053 130.221 13.1653 130.221 12.856C130.221 12.5573 130.109 12.3227 129.885 12.152C129.661 11.9813 129.335 11.8427 128.909 11.736L128.157 11.544C127.41 11.3413 126.829 11.0373 126.413 10.632C126.007 10.2267 125.805 9.768 125.805 9.256C125.805 8.47733 126.055 7.87467 126.557 7.448C127.058 7.02133 127.799 6.808 128.781 6.808C129.261 6.808 129.698 6.87733 130.093 7.016C130.498 7.15467 130.839 7.352 131.117 7.608C131.405 7.864 131.607 8.168 131.725 8.52L130.445 9.096C130.317 8.776 130.098 8.54133 129.789 8.392C129.479 8.232 129.117 8.152 128.701 8.152C128.274 8.152 127.938 8.248 127.693 8.44C127.447 8.62133 127.325 8.87733 127.325 9.208C127.325 9.38933 127.426 9.56533 127.629 9.736C127.842 9.896 128.151 10.0293 128.557 10.136L129.421 10.344C129.943 10.472 130.375 10.6693 130.717 10.936C131.058 11.192 131.314 11.4853 131.485 11.816C131.655 12.136 131.741 12.472 131.741 12.824C131.741 13.304 131.607 13.7253 131.341 14.088C131.085 14.44 130.727 14.712 130.269 14.904C129.821 15.096 129.309 15.192 128.733 15.192Z" fill="url(#paint0_linear_438_1775)"/>
<g clip-path="url(#clip0_438_1775)">
<path d="M144.667 11.6248C148.12 11.6248 149.625 10.172 149.625 6.6665C149.625 10.172 151.12 11.6248 154.583 11.6248C151.12 11.6248 149.625 13.1197 149.625 16.5832C149.625 13.1197 148.12 11.6248 144.667 11.6248Z" fill="url(#paint1_linear_438_1775)"/>
<path d="M140.417 5.604C142.636 5.604 143.604 4.67009 143.604 2.4165C143.604 4.67009 144.565 5.604 146.792 5.604C144.565 5.604 143.604 6.56499 143.604 8.7915C143.604 6.56499 142.636 5.604 140.417 5.604Z" fill="url(#paint2_linear_438_1775)"/>
<path fill-rule="evenodd" clip-rule="evenodd" d="M143.604 1.61963C144.044 1.61963 144.401 1.9764 144.401 2.4165C144.401 3.45249 144.625 3.99251 144.925 4.29003C145.225 4.58861 145.767 4.80713 146.792 4.80713C147.232 4.80713 147.589 5.1639 147.589 5.604C147.589 6.04411 147.232 6.40088 146.792 6.40088C145.772 6.40088 145.229 6.62379 144.927 6.92629C144.624 7.22879 144.401 7.77172 144.401 8.7915C144.401 9.23161 144.044 9.58838 143.604 9.58838C143.164 9.58838 142.807 9.23161 142.807 8.7915C142.807 7.77304 142.583 7.22974 142.28 6.92675C141.976 6.6235 141.432 6.40088 140.417 6.40088C139.977 6.40088 139.62 6.04411 139.62 5.604C139.62 5.1639 139.977 4.80713 140.417 4.80713C141.438 4.80713 141.98 4.5889 142.282 4.28957C142.582 3.99156 142.807 3.45117 142.807 2.4165C142.807 1.9764 143.164 1.61963 143.604 1.61963ZM143.603 5.20213C143.541 5.27798 143.475 5.35102 143.404 5.42112C143.337 5.48753 143.268 5.54995 143.196 5.60857C143.268 5.6681 143.338 5.73148 143.406 5.79888C143.476 5.86874 143.542 5.94146 143.603 6.01692C143.664 5.94163 143.73 5.86906 143.8 5.79934C143.867 5.73177 143.937 5.66824 144.01 5.60857C143.938 5.54982 143.868 5.48724 143.801 5.42067C143.731 5.3507 143.665 5.27781 143.603 5.20213ZM149.625 5.86963C150.065 5.86963 150.422 6.2264 150.422 6.6665C150.422 8.32847 150.78 9.3112 151.367 9.89493C151.956 10.4797 152.94 10.828 154.583 10.828C155.024 10.828 155.38 11.1847 155.38 11.6248C155.38 12.0649 155.024 12.4217 154.583 12.4217C152.945 12.4217 151.96 12.7781 151.369 13.3687C150.778 13.9593 150.422 14.9449 150.422 16.5832C150.422 17.0233 150.065 17.38 149.625 17.38C149.185 17.38 148.828 17.0233 148.828 16.5832C148.828 14.9462 148.47 13.9602 147.878 13.3691C147.285 12.7778 146.299 12.4217 144.667 12.4217C144.227 12.4217 143.87 12.0649 143.87 11.6248C143.87 11.1847 144.227 10.828 144.667 10.828C146.304 10.828 147.289 10.48 147.88 9.89448C148.469 9.31025 148.828 8.32714 148.828 6.6665C148.828 6.2264 149.185 5.86963 149.625 5.86963Z" fill="url(#paint3_linear_438_1775)"/>
</g>
<defs>
<linearGradient id="paint0_linear_438_1775" x1="-12.6266" y1="-8.5" x2="127.486" y2="70.178" gradientUnits="userSpaceOnUse">
<stop stop-color="#DBD7FF"/>
<stop offset="0.269231" stop-color="#AD6CD9"/>
<stop offset="1" stop-color="#8DBCFF"/>
</linearGradient>
<linearGradient id="paint1_linear_438_1775" x1="140.435" y1="2.4165" x2="157.837" y2="3.53654" gradientUnits="userSpaceOnUse">
<stop stop-color="#C671FF"/>
<stop offset="1" stop-color="#69A7FF"/>
</linearGradient>
<linearGradient id="paint2_linear_438_1775" x1="140.435" y1="2.4165" x2="157.837" y2="3.53654" gradientUnits="userSpaceOnUse">
<stop stop-color="#C671FF"/>
<stop offset="1" stop-color="#69A7FF"/>
</linearGradient>
<linearGradient id="paint3_linear_438_1775" x1="144" y1="-3.50024" x2="156" y2="23.9998" gradientUnits="userSpaceOnUse">
<stop offset="0.0832552" stop-color="#EEE0FF"/>
<stop offset="0.422361" stop-color="#B67AFF"/>
<stop offset="1" stop-color="#7E9AFE"/>
</linearGradient>
<clipPath id="clip0_438_1775">
<rect width="17" height="17" fill="white" transform="translate(139 1)"/>
</clipPath>
</defs>
</svg>
