<svg width="67" height="25" viewBox="0 0 67 25" fill="none" xmlns="http://www.w3.org/2000/svg">
<path d="M12.033 20L6.216 5.3H8.316L14.238 20H12.033ZM0.189 20L6.111 5.3H8.211L2.394 20H0.189ZM2.982 16.073V14.225H11.445V16.073H2.982ZM19.856 20.252C18.806 20.252 17.994 19.986 17.42 19.454C16.846 18.908 16.559 18.131 16.559 17.123V6.224H18.554V16.829C18.554 17.347 18.68 17.746 18.932 18.026C19.198 18.292 19.576 18.425 20.066 18.425C20.206 18.425 20.36 18.397 20.528 18.341C20.696 18.285 20.899 18.173 21.137 18.005L21.893 19.559C21.529 19.797 21.179 19.972 20.843 20.084C20.521 20.196 20.192 20.252 19.856 20.252ZM14.774 11.222V9.5H21.536V11.222H14.774ZM23.8626 20V5.3H25.8576V20H23.8626ZM35.0674 20L34.9834 18.173V14.519C34.9834 13.749 34.8924 13.105 34.7104 12.587C34.5424 12.069 34.2764 11.677 33.9124 11.411C33.5624 11.145 33.0934 11.012 32.5054 11.012C31.9594 11.012 31.4834 11.124 31.0774 11.348C30.6854 11.572 30.3564 11.922 30.0904 12.398L28.3264 11.726C28.5784 11.25 28.8934 10.83 29.2714 10.466C29.6494 10.088 30.1044 9.794 30.6364 9.584C31.1684 9.36 31.7914 9.248 32.5054 9.248C33.4994 9.248 34.3254 9.444 34.9834 9.836C35.6414 10.228 36.1314 10.795 36.4534 11.537C36.7894 12.279 36.9504 13.196 36.9364 14.288L36.9154 20H35.0674ZM31.9804 20.252C30.7344 20.252 29.7614 19.972 29.0614 19.412C28.3754 18.838 28.0324 18.047 28.0324 17.039C28.0324 15.961 28.3894 15.142 29.1034 14.582C29.8314 14.008 30.8394 13.721 32.1274 13.721H35.0464V15.296H32.6734C31.7074 15.296 31.0284 15.45 30.6364 15.758C30.2444 16.052 30.0484 16.465 30.0484 16.997C30.0484 17.487 30.2304 17.872 30.5944 18.152C30.9724 18.418 31.4904 18.551 32.1484 18.551C32.7224 18.551 33.2194 18.432 33.6394 18.194C34.0594 17.942 34.3884 17.592 34.6264 17.144C34.8644 16.696 34.9834 16.185 34.9834 15.611H35.6764C35.6764 17.039 35.3684 18.173 34.7524 19.013C34.1504 19.839 33.2264 20.252 31.9804 20.252ZM43.2075 20.252C42.4655 20.252 41.8005 20.14 41.2125 19.916C40.6385 19.692 40.1485 19.391 39.7425 19.013C39.3505 18.635 39.0565 18.208 38.8605 17.732L40.5825 16.976C40.8065 17.41 41.1425 17.767 41.5905 18.047C42.0385 18.327 42.5355 18.467 43.0815 18.467C43.6835 18.467 44.1805 18.355 44.5725 18.131C44.9645 17.907 45.1605 17.592 45.1605 17.186C45.1605 16.794 45.0135 16.486 44.7195 16.262C44.4255 16.038 43.9985 15.856 43.4385 15.716L42.4515 15.464C41.4715 15.198 40.7085 14.799 40.1625 14.267C39.6305 13.735 39.3645 13.133 39.3645 12.461C39.3645 11.439 39.6935 10.648 40.3515 10.088C41.0095 9.528 41.9825 9.248 43.2705 9.248C43.9005 9.248 44.4745 9.339 44.9925 9.521C45.5245 9.703 45.9725 9.962 46.3365 10.298C46.7145 10.634 46.9805 11.033 47.1345 11.495L45.4545 12.251C45.2865 11.831 44.9995 11.523 44.5935 11.327C44.1875 11.117 43.7115 11.012 43.1655 11.012C42.6055 11.012 42.1645 11.138 41.8425 11.39C41.5205 11.628 41.3595 11.964 41.3595 12.398C41.3595 12.636 41.4925 12.867 41.7585 13.091C42.0385 13.301 42.4445 13.476 42.9765 13.616L44.1105 13.889C44.7965 14.057 45.3635 14.316 45.8115 14.666C46.2595 15.002 46.5955 15.387 46.8195 15.821C47.0435 16.241 47.1555 16.682 47.1555 17.144C47.1555 17.774 46.9805 18.327 46.6305 18.803C46.2945 19.265 45.8255 19.622 45.2235 19.874C44.6355 20.126 43.9635 20.252 43.2075 20.252Z" fill="url(#paint0_linear_448_1790)"/>
<g clip-path="url(#clip0_448_1790)">
<path d="M54.3333 12.8752C58.1924 12.8752 59.8749 11.2515 59.8749 7.3335C59.8749 11.2515 61.5457 12.8752 65.4166 12.8752C61.5457 12.8752 59.8749 14.5459 59.8749 18.4168C59.8749 14.5459 58.1924 12.8752 54.3333 12.8752Z" fill="url(#paint1_linear_448_1790)"/>
<path d="M49.5833 6.146C52.0641 6.146 53.1458 5.10221 53.1458 2.5835C53.1458 5.10221 54.2198 6.146 56.7083 6.146C54.2198 6.146 53.1458 7.22004 53.1458 9.7085C53.1458 7.22004 52.0641 6.146 49.5833 6.146Z" fill="url(#paint2_linear_448_1790)"/>
<path fill-rule="evenodd" clip-rule="evenodd" d="M53.1458 1.69287C53.6376 1.69287 54.0364 2.09162 54.0364 2.5835C54.0364 3.74136 54.2868 4.34491 54.6215 4.67744C54.9574 5.01114 55.5626 5.25537 56.7083 5.25537C57.2001 5.25537 57.5989 5.65412 57.5989 6.146C57.5989 6.63788 57.2001 7.03662 56.7083 7.03662C55.5685 7.03662 54.9617 7.28576 54.6236 7.62384C54.2855 7.96193 54.0364 8.56874 54.0364 9.7085C54.0364 10.2004 53.6376 10.5991 53.1458 10.5991C52.6539 10.5991 52.2551 10.2004 52.2551 9.7085C52.2551 8.57022 52.0048 7.96299 51.6656 7.62436C51.3261 7.28543 50.7185 7.03662 49.5833 7.03662C49.0914 7.03662 48.6926 6.63788 48.6926 6.146C48.6926 5.65412 49.0914 5.25537 49.5833 5.25537C50.7244 5.25537 51.3304 5.01147 51.6677 4.67693C52.0035 4.34386 52.2551 3.73988 52.2551 2.5835C52.2551 2.09162 52.6539 1.69287 53.1458 1.69287ZM53.1445 5.69684C53.0751 5.78161 53.001 5.86325 52.922 5.9416C52.8472 6.01582 52.7695 6.08558 52.689 6.1511C52.7702 6.21764 52.8486 6.28847 52.9241 6.3638C53.0023 6.44188 53.0757 6.52316 53.1445 6.60749C53.213 6.52335 53.2861 6.44224 53.3641 6.36431C53.4396 6.28879 53.5181 6.21779 53.5994 6.1511C53.5188 6.08543 53.441 6.0155 53.3661 5.94109C53.2874 5.86289 53.2136 5.78142 53.1445 5.69684ZM59.8749 6.44287C60.3668 6.44287 60.7655 6.84162 60.7655 7.3335C60.7655 9.19098 61.1652 10.2893 61.8219 10.9417C62.4797 11.5953 63.5797 11.9845 65.4166 11.9845C65.9085 11.9845 66.3072 12.3833 66.3072 12.8752C66.3072 13.367 65.9085 13.7658 65.4166 13.7658C63.5856 13.7658 62.484 14.1641 61.8239 14.8242C61.1639 15.4842 60.7655 16.5858 60.7655 18.4168C60.7655 18.9087 60.3668 19.3075 59.8749 19.3075C59.383 19.3075 58.9843 18.9087 58.9843 18.4168C58.9843 16.5873 58.5837 15.4853 57.922 14.8247C57.26 14.1638 56.1576 13.7658 54.3333 13.7658C53.8414 13.7658 53.4426 13.367 53.4426 12.8752C53.4426 12.3833 53.8414 11.9845 54.3333 11.9845C56.1635 11.9845 57.2643 11.5957 57.9241 10.9412C58.5824 10.2883 58.9843 9.1895 58.9843 7.3335C58.9843 6.84162 59.383 6.44287 59.8749 6.44287Z" fill="url(#paint3_linear_448_1790)"/>
</g>
<defs>
<linearGradient id="paint0_linear_448_1790" x1="-4.55696" y1="-11.1842" x2="60.4135" y2="-1.1774" gradientUnits="userSpaceOnUse">
<stop stop-color="#DBD7FF"/>
<stop offset="0.269231" stop-color="#AD6CD9"/>
<stop offset="1" stop-color="#8DBCFF"/>
</linearGradient>
<linearGradient id="paint1_linear_448_1790" x1="49.6041" y1="2.5835" x2="69.0529" y2="3.8353" gradientUnits="userSpaceOnUse">
<stop stop-color="#C671FF"/>
<stop offset="1" stop-color="#69A7FF"/>
</linearGradient>
<linearGradient id="paint2_linear_448_1790" x1="49.6041" y1="2.5835" x2="69.0529" y2="3.8353" gradientUnits="userSpaceOnUse">
<stop stop-color="#C671FF"/>
<stop offset="1" stop-color="#69A7FF"/>
</linearGradient>
<linearGradient id="paint3_linear_448_1790" x1="53.5881" y1="-4.02934" x2="66.9998" y2="26.706" gradientUnits="userSpaceOnUse">
<stop offset="0.0832552" stop-color="#EEE0FF"/>
<stop offset="0.422361" stop-color="#B67AFF"/>
<stop offset="1" stop-color="#7E9AFE"/>
</linearGradient>
<clipPath id="clip0_448_1790">
<rect width="19" height="19" fill="white" transform="translate(48 1)"/>
</clipPath>
</defs>
</svg>
