<svg width="306" height="42" viewBox="0 0 306 42" fill="none" xmlns="http://www.w3.org/2000/svg">
<path d="M3.115 33V8.5H6.545V33H3.115ZM11.9829 33V15.5H15.0979L15.3079 18.72V33H11.9829ZM24.0929 33V24.04H27.4179V33H24.0929ZM24.0929 24.04C24.0929 22.4533 23.9062 21.2517 23.5329 20.435C23.1829 19.595 22.6812 19.0117 22.0279 18.685C21.3979 18.3583 20.6629 18.1833 19.8229 18.16C18.3995 18.16 17.2912 18.6617 16.4979 19.665C15.7045 20.6683 15.3079 22.08 15.3079 23.9H13.8729C13.8729 22.0567 14.1412 20.4817 14.6779 19.175C15.2379 17.845 16.0195 16.83 17.0229 16.13C18.0495 15.43 19.2629 15.08 20.6629 15.08C22.0395 15.08 23.2295 15.36 24.2329 15.92C25.2595 16.48 26.0412 17.355 26.5779 18.545C27.1379 19.7117 27.4179 21.2517 27.4179 23.165V24.04H24.0929ZM38.357 33.42C36.607 33.42 35.2537 32.9767 34.297 32.09C33.3403 31.18 32.862 29.885 32.862 28.205V10.04H36.187V27.715C36.187 28.5783 36.397 29.2433 36.817 29.71C37.2603 30.1533 37.8903 30.375 38.707 30.375C38.9403 30.375 39.197 30.3283 39.477 30.235C39.757 30.1417 40.0953 29.955 40.492 29.675L41.752 32.265C41.1453 32.6617 40.562 32.9533 40.002 33.14C39.4653 33.3267 38.917 33.42 38.357 33.42ZM29.887 18.37V15.5H41.157V18.37H29.887ZM47.0646 23.585C47.0646 21.695 47.4263 20.155 48.1496 18.965C48.8729 17.775 49.8063 16.8883 50.9496 16.305C52.0929 15.7217 53.2946 15.43 54.5546 15.43V18.58C53.5046 18.58 52.5013 18.7433 51.5446 19.07C50.6113 19.3733 49.8413 19.8867 49.2346 20.61C48.6513 21.31 48.3596 22.2667 48.3596 23.48L47.0646 23.585ZM45.0346 33V15.5H48.3596V33H45.0346ZM65.1468 33.42C63.3968 33.42 61.8568 33.035 60.5268 32.265C59.1968 31.4717 58.1468 30.3867 57.3768 29.01C56.6301 27.6333 56.2568 26.0467 56.2568 24.25C56.2568 22.4533 56.6301 20.8667 57.3768 19.49C58.1234 18.1133 59.1618 17.04 60.4918 16.27C61.8218 15.4767 63.3501 15.08 65.0768 15.08C66.8034 15.08 68.3318 15.4767 69.6618 16.27C70.9918 17.04 72.0301 18.1133 72.7768 19.49C73.5234 20.8667 73.8968 22.4533 73.8968 24.25C73.8968 26.0467 73.5234 27.6333 72.7768 29.01C72.0301 30.3867 70.9918 31.4717 69.6618 32.265C68.3551 33.035 66.8501 33.42 65.1468 33.42ZM65.1468 30.375C66.1968 30.375 67.1301 30.1183 67.9468 29.605C68.7634 29.0683 69.3934 28.345 69.8368 27.435C70.3034 26.525 70.5368 25.4633 70.5368 24.25C70.5368 23.0367 70.3034 21.975 69.8368 21.065C69.3934 20.155 68.7518 19.4433 67.9118 18.93C67.0718 18.3933 66.1268 18.125 65.0768 18.125C64.0034 18.125 63.0584 18.3933 62.2418 18.93C61.4251 19.4433 60.7834 20.155 60.3168 21.065C59.8501 21.975 59.6168 23.0367 59.6168 24.25C59.6168 25.4633 59.8501 26.525 60.3168 27.435C60.7834 28.345 61.4368 29.0683 62.2768 29.605C63.1168 30.1183 64.0734 30.375 65.1468 30.375ZM90.3495 33L90.2095 29.745V8.5H93.4995V33H90.3495ZM84.4695 33.42C82.8828 33.42 81.4945 33.035 80.3045 32.265C79.1378 31.495 78.2162 30.4217 77.5395 29.045C76.8862 27.6683 76.5595 26.07 76.5595 24.25C76.5595 22.4067 76.8862 20.8083 77.5395 19.455C78.2162 18.0783 79.1378 17.005 80.3045 16.235C81.4945 15.465 82.8828 15.08 84.4695 15.08C85.9395 15.08 87.2112 15.465 88.2845 16.235C89.3812 17.005 90.2212 18.0783 90.8045 19.455C91.3878 20.8083 91.6795 22.4067 91.6795 24.25C91.6795 26.07 91.3878 27.6683 90.8045 29.045C90.2212 30.4217 89.3812 31.495 88.2845 32.265C87.2112 33.035 85.9395 33.42 84.4695 33.42ZM85.2395 30.41C86.2195 30.41 87.0828 30.1533 87.8295 29.64C88.5762 29.1033 89.1595 28.38 89.5795 27.47C89.9995 26.5367 90.2095 25.4633 90.2095 24.25C90.2095 23.0367 89.9995 21.975 89.5795 21.065C89.1595 20.1317 88.5762 19.4083 87.8295 18.895C87.0828 18.3583 86.2078 18.09 85.2045 18.09C84.1778 18.09 83.2678 18.3583 82.4745 18.895C81.6812 19.4083 81.0628 20.1317 80.6195 21.065C80.1762 21.975 79.9545 23.0367 79.9545 24.25C79.9545 25.4633 80.1762 26.5367 80.6195 27.47C81.0862 28.38 81.7162 29.1033 82.5095 29.64C83.3028 30.1533 84.2128 30.41 85.2395 30.41ZM110.016 33L109.806 29.78V15.5H113.096V33H110.016ZM97.6957 24.46V15.5H101.021V24.46H97.6957ZM101.021 24.46C101.021 26.0233 101.196 27.225 101.546 28.065C101.919 28.905 102.432 29.4883 103.086 29.815C103.739 30.1417 104.474 30.3167 105.291 30.34C106.714 30.34 107.822 29.8383 108.616 28.835C109.409 27.8317 109.806 26.42 109.806 24.6H111.241C111.241 26.4433 110.961 28.03 110.401 29.36C109.864 30.6667 109.094 31.67 108.091 32.37C107.087 33.07 105.862 33.42 104.416 33.42C103.062 33.42 101.872 33.14 100.846 32.58C99.8423 32.02 99.0607 31.145 98.5007 29.955C97.964 28.765 97.6957 27.225 97.6957 25.335V24.46H101.021ZM125.715 33.42C123.965 33.42 122.413 33.035 121.06 32.265C119.706 31.4717 118.645 30.3867 117.875 29.01C117.128 27.6333 116.755 26.0467 116.755 24.25C116.755 22.4533 117.128 20.8667 117.875 19.49C118.645 18.1133 119.695 17.04 121.025 16.27C122.378 15.4767 123.918 15.08 125.645 15.08C127.348 15.08 128.876 15.4767 130.23 16.27C131.606 17.0633 132.633 18.195 133.31 19.665L130.3 20.925C129.856 20.0617 129.215 19.385 128.375 18.895C127.558 18.405 126.613 18.16 125.54 18.16C124.49 18.16 123.556 18.4167 122.74 18.93C121.923 19.4433 121.281 20.1667 120.815 21.1C120.348 22.01 120.115 23.06 120.115 24.25C120.115 25.44 120.348 26.49 120.815 27.4C121.281 28.31 121.935 29.0333 122.775 29.57C123.615 30.0833 124.56 30.34 125.61 30.34C126.683 30.34 127.64 30.0717 128.48 29.535C129.32 28.975 129.95 28.2283 130.37 27.295L133.415 28.52C132.738 30.06 131.711 31.2617 130.335 32.125C128.981 32.9883 127.441 33.42 125.715 33.42ZM136.915 33V15.5H140.24V33H136.915ZM138.595 11.79C138.058 11.79 137.591 11.5917 137.195 11.195C136.798 10.775 136.6 10.2967 136.6 9.76C136.6 9.2 136.798 8.73333 137.195 8.36C137.591 7.96333 138.058 7.765 138.595 7.765C139.155 7.765 139.621 7.96333 139.995 8.36C140.391 8.73333 140.59 9.2 140.59 9.76C140.59 10.2967 140.391 10.775 139.995 11.195C139.621 11.5917 139.155 11.79 138.595 11.79ZM145.113 33V15.5H148.228L148.438 18.72V33H145.113ZM157.223 33V24.04H160.548V33H157.223ZM157.223 24.04C157.223 22.4533 157.036 21.2517 156.663 20.435C156.313 19.595 155.811 19.0117 155.158 18.685C154.528 18.3583 153.793 18.1833 152.953 18.16C151.529 18.16 150.421 18.6617 149.628 19.665C148.834 20.6683 148.438 22.08 148.438 23.9H147.003C147.003 22.0567 147.271 20.4817 147.808 19.175C148.368 17.845 149.149 16.83 150.153 16.13C151.179 15.43 152.393 15.08 153.793 15.08C155.169 15.08 156.359 15.36 157.363 15.92C158.389 16.48 159.171 17.355 159.708 18.545C160.268 19.7117 160.548 21.2517 160.548 23.165V24.04H157.223ZM171.977 40.455C170.81 40.455 169.749 40.3383 168.792 40.105C167.835 39.895 167.03 39.65 166.377 39.37C165.724 39.09 165.234 38.845 164.907 38.635L166.167 35.94C166.47 36.1267 166.902 36.3367 167.462 36.57C168.022 36.8267 168.675 37.0367 169.422 37.2C170.169 37.3867 170.997 37.48 171.907 37.48C172.98 37.48 173.937 37.2583 174.777 36.815C175.617 36.395 176.27 35.73 176.737 34.82C177.227 33.91 177.472 32.7433 177.472 31.32V15.5H180.797V31.25C180.797 33.2567 180.412 34.9367 179.642 36.29C178.895 37.6667 177.857 38.705 176.527 39.405C175.22 40.105 173.704 40.455 171.977 40.455ZM171.662 32.755C170.075 32.755 168.687 32.3933 167.497 31.67C166.33 30.9233 165.409 29.8967 164.732 28.59C164.079 27.26 163.752 25.7317 163.752 24.005C163.752 22.2083 164.079 20.645 164.732 19.315C165.409 17.985 166.33 16.9467 167.497 16.2C168.687 15.4533 170.075 15.08 171.662 15.08C173.109 15.08 174.369 15.4533 175.442 16.2C176.539 16.9467 177.379 17.9967 177.962 19.35C178.569 20.68 178.872 22.2433 178.872 24.04C178.872 25.7667 178.569 27.295 177.962 28.625C177.379 29.9317 176.539 30.9467 175.442 31.67C174.369 32.3933 173.109 32.755 171.662 32.755ZM172.502 29.955C173.482 29.955 174.334 29.6983 175.057 29.185C175.78 28.6483 176.352 27.9367 176.772 27.05C177.192 26.14 177.402 25.1017 177.402 23.935C177.402 22.7683 177.192 21.7417 176.772 20.855C176.352 19.9683 175.769 19.28 175.022 18.79C174.299 18.2767 173.447 18.02 172.467 18.02C171.44 18.02 170.53 18.2767 169.737 18.79C168.967 19.28 168.36 19.9683 167.917 20.855C167.474 21.7417 167.252 22.7683 167.252 23.935C167.252 25.1017 167.474 26.14 167.917 27.05C168.384 27.9367 169.002 28.6483 169.772 29.185C170.565 29.6983 171.475 29.955 172.502 29.955ZM211.701 33L202.006 8.5H205.506L215.376 33H211.701ZM191.961 33L201.831 8.5H205.331L195.636 33H191.961ZM196.616 26.455V23.375H210.721V26.455H196.616ZM224.739 33.42C222.989 33.42 221.635 32.9767 220.679 32.09C219.722 31.18 219.244 29.885 219.244 28.205V10.04H222.569V27.715C222.569 28.5783 222.779 29.2433 223.199 29.71C223.642 30.1533 224.272 30.375 225.089 30.375C225.322 30.375 225.579 30.3283 225.859 30.235C226.139 30.1417 226.477 29.955 226.874 29.675L228.134 32.265C227.527 32.6617 226.944 32.9533 226.384 33.14C225.847 33.3267 225.299 33.42 224.739 33.42ZM216.269 18.37V15.5H227.539V18.37H216.269ZM231.416 33V8.5H234.741V33H231.416ZM250.091 33L249.951 29.955V23.865C249.951 22.5817 249.799 21.5083 249.496 20.645C249.216 19.7817 248.773 19.1283 248.166 18.685C247.583 18.2417 246.801 18.02 245.821 18.02C244.911 18.02 244.118 18.2067 243.441 18.58C242.788 18.9533 242.239 19.5367 241.796 20.33L238.856 19.21C239.276 18.4167 239.801 17.7167 240.431 17.11C241.061 16.48 241.819 15.99 242.706 15.64C243.593 15.2667 244.631 15.08 245.821 15.08C247.478 15.08 248.854 15.4067 249.951 16.06C251.048 16.7133 251.864 17.6583 252.401 18.895C252.961 20.1317 253.229 21.66 253.206 23.48L253.171 33H250.091ZM244.946 33.42C242.869 33.42 241.248 32.9533 240.081 32.02C238.938 31.0633 238.366 29.745 238.366 28.065C238.366 26.2683 238.961 24.9033 240.151 23.97C241.364 23.0133 243.044 22.535 245.191 22.535H250.056V25.16H246.101C244.491 25.16 243.359 25.4167 242.706 25.93C242.053 26.42 241.726 27.1083 241.726 27.995C241.726 28.8117 242.029 29.4533 242.636 29.92C243.266 30.3633 244.129 30.585 245.226 30.585C246.183 30.585 247.011 30.3867 247.711 29.99C248.411 29.57 248.959 28.9867 249.356 28.24C249.753 27.4933 249.951 26.6417 249.951 25.685H251.106C251.106 28.065 250.593 29.955 249.566 31.355C248.563 32.7317 247.023 33.42 244.946 33.42ZM263.658 33.42C262.421 33.42 261.313 33.2333 260.333 32.86C259.376 32.4867 258.56 31.985 257.883 31.355C257.23 30.725 256.74 30.0133 256.413 29.22L259.283 27.96C259.656 28.6833 260.216 29.2783 260.963 29.745C261.71 30.2117 262.538 30.445 263.448 30.445C264.451 30.445 265.28 30.2583 265.933 29.885C266.586 29.5117 266.913 28.9867 266.913 28.31C266.913 27.6567 266.668 27.1433 266.178 26.77C265.688 26.3967 264.976 26.0933 264.043 25.86L262.398 25.44C260.765 24.9967 259.493 24.3317 258.583 23.445C257.696 22.5583 257.253 21.555 257.253 20.435C257.253 18.7317 257.801 17.4133 258.898 16.48C259.995 15.5467 261.616 15.08 263.763 15.08C264.813 15.08 265.77 15.2317 266.633 15.535C267.52 15.8383 268.266 16.27 268.873 16.83C269.503 17.39 269.946 18.055 270.203 18.825L267.403 20.085C267.123 19.385 266.645 18.8717 265.968 18.545C265.291 18.195 264.498 18.02 263.588 18.02C262.655 18.02 261.92 18.23 261.383 18.65C260.846 19.0467 260.578 19.6067 260.578 20.33C260.578 20.7267 260.8 21.1117 261.243 21.485C261.71 21.835 262.386 22.1267 263.273 22.36L265.163 22.815C266.306 23.095 267.251 23.5267 267.998 24.11C268.745 24.67 269.305 25.3117 269.678 26.035C270.051 26.735 270.238 27.47 270.238 28.24C270.238 29.29 269.946 30.2117 269.363 31.005C268.803 31.775 268.021 32.37 267.018 32.79C266.038 33.21 264.918 33.42 263.658 33.42Z" fill="url(#paint0_linear_464_1770)"/>
<g clip-path="url(#clip0_464_1770)">
<path d="M289.333 23.6249C294.411 23.6249 296.625 21.4885 296.625 16.3333C296.625 21.4885 298.823 23.6249 303.917 23.6249C298.823 23.6249 296.625 25.8233 296.625 30.9166C296.625 25.8233 294.411 23.6249 289.333 23.6249Z" fill="url(#paint1_linear_464_1770)"/>
<path d="M283.083 14.7708C286.348 14.7708 287.771 13.3973 287.771 10.0833C287.771 13.3973 289.184 14.7708 292.458 14.7708C289.184 14.7708 287.771 16.184 287.771 19.4583C287.771 16.184 286.348 14.7708 283.083 14.7708Z" fill="url(#paint2_linear_464_1770)"/>
<path fill-rule="evenodd" clip-rule="evenodd" d="M287.771 8.91138C288.418 8.91138 288.943 9.43604 288.943 10.0833C288.943 11.6068 289.272 12.4009 289.713 12.8384C290.155 13.2775 290.951 13.5989 292.458 13.5989C293.105 13.5989 293.63 14.1235 293.63 14.7708C293.63 15.418 293.105 15.9426 292.458 15.9426C290.959 15.9426 290.16 16.2704 289.715 16.7153C289.27 17.1601 288.943 17.9586 288.943 19.4583C288.943 20.1055 288.418 20.6301 287.771 20.6301C287.124 20.6301 286.599 20.1055 286.599 19.4583C286.599 17.9605 286.269 17.1615 285.823 16.716C285.376 16.27 284.577 15.9426 283.083 15.9426C282.436 15.9426 281.911 15.418 281.911 14.7708C281.911 14.1235 282.436 13.5989 283.083 13.5989C284.585 13.5989 285.382 13.2779 285.826 12.8378C286.268 12.3995 286.599 11.6048 286.599 10.0833C286.599 9.43604 287.124 8.91138 287.771 8.91138ZM287.769 14.1798C287.678 14.2913 287.58 14.3987 287.476 14.5018C287.378 14.5995 287.276 14.6913 287.17 14.7775C287.277 14.865 287.38 14.9582 287.479 15.0573C287.582 15.1601 287.679 15.267 287.769 15.378C287.859 15.2673 287.955 15.1605 288.058 15.058C288.157 14.9586 288.261 14.8652 288.368 14.7775C288.262 14.6911 288.159 14.599 288.061 14.5011C287.957 14.3982 287.86 14.2911 287.769 14.1798ZM296.625 15.1614C297.272 15.1614 297.797 15.686 297.797 16.3333C297.797 18.7773 298.323 20.2225 299.187 21.0809C300.052 21.9409 301.5 22.453 303.917 22.453C304.564 22.453 305.088 22.9777 305.088 23.6249C305.088 24.2721 304.564 24.7968 303.917 24.7968C301.507 24.7968 300.058 25.3209 299.189 26.1894C298.321 27.0579 297.797 28.5074 297.797 30.9166C297.797 31.5638 297.272 32.0885 296.625 32.0885C295.978 32.0885 295.453 31.5638 295.453 30.9166C295.453 28.5093 294.926 27.0593 294.055 26.1901C293.184 25.3205 291.734 24.7968 289.333 24.7968C288.686 24.7968 288.161 24.2721 288.161 23.6249C288.161 22.9777 288.686 22.453 289.333 22.453C291.742 22.453 293.19 21.9414 294.058 21.0803C294.924 20.2211 295.453 18.7754 295.453 16.3333C295.453 15.686 295.978 15.1614 296.625 15.1614Z" fill="url(#paint3_linear_464_1770)"/>
</g>
<defs>
<linearGradient id="paint0_linear_464_1770" x1="-25.8228" y1="-18.7895" x2="270.973" y2="135.4" gradientUnits="userSpaceOnUse">
<stop stop-color="#DBD7FF"/>
<stop offset="0.269231" stop-color="#AD6CD9"/>
<stop offset="1" stop-color="#8DBCFF"/>
</linearGradient>
<linearGradient id="paint1_linear_464_1770" x1="283.111" y1="10.0833" x2="308.701" y2="11.7304" gradientUnits="userSpaceOnUse">
<stop stop-color="#C671FF"/>
<stop offset="1" stop-color="#69A7FF"/>
</linearGradient>
<linearGradient id="paint2_linear_464_1770" x1="283.111" y1="10.0833" x2="308.701" y2="11.7304" gradientUnits="userSpaceOnUse">
<stop stop-color="#C671FF"/>
<stop offset="1" stop-color="#69A7FF"/>
</linearGradient>
<linearGradient id="paint3_linear_464_1770" x1="288.353" y1="1.38215" x2="306" y2="41.8233" gradientUnits="userSpaceOnUse">
<stop offset="0.0832552" stop-color="#EEE0FF"/>
<stop offset="0.422361" stop-color="#B67AFF"/>
<stop offset="1" stop-color="#7E9AFE"/>
</linearGradient>
<clipPath id="clip0_464_1770">
<rect width="25" height="25" fill="white" transform="translate(281 8)"/>
</clipPath>
</defs>
</svg>
