<svg width="38" height="38" viewBox="0 0 38 38" fill="none" xmlns="http://www.w3.org/2000/svg">
<path d="M18.9998 34.8334C18.6304 34.8334 18.3137 34.7279 18.0498 34.5167C17.7859 34.3056 17.588 34.0286 17.4561 33.6855C16.9547 32.2077 16.3214 30.8223 15.5561 29.5292C14.8172 28.2362 13.7748 26.7188 12.429 24.9772C11.0832 23.2355 9.98803 21.573 9.14359 19.9897C8.32553 18.4063 7.9165 16.4931 7.9165 14.2501C7.9165 11.1626 8.98525 8.55008 11.1228 6.41258C13.2866 4.24869 15.9123 3.16675 18.9998 3.16675C22.0873 3.16675 24.6998 4.24869 26.8373 6.41258C29.0012 8.55008 30.0832 11.1626 30.0832 14.2501C30.0832 16.6515 29.6214 18.657 28.6978 20.2667C27.8005 21.8501 26.7582 23.4202 25.5707 24.9772C24.1457 26.8772 23.0637 28.4605 22.3248 29.7272C21.6123 30.9674 21.0186 32.2869 20.5436 33.6855C20.4116 34.0549 20.2005 34.3452 19.9103 34.5563C19.6464 34.7411 19.3429 34.8334 18.9998 34.8334ZM18.9998 18.2084C20.1082 18.2084 21.045 17.8258 21.8103 17.0605C22.5755 16.2952 22.9582 15.3584 22.9582 14.2501C22.9582 13.1417 22.5755 12.2049 21.8103 11.4397C21.045 10.6744 20.1082 10.2917 18.9998 10.2917C17.8915 10.2917 16.9547 10.6744 16.1894 11.4397C15.4241 12.2049 15.0415 13.1417 15.0415 14.2501C15.0415 15.3584 15.4241 16.2952 16.1894 17.0605C16.9547 17.8258 17.8915 18.2084 18.9998 18.2084Z" fill="#D93A20"/>
</svg>
