<svg width="179" height="23" viewBox="0 0 179 23" fill="none" xmlns="http://www.w3.org/2000/svg">
<path d="M1.691 18V4.7H6.175C7.06167 4.7 7.84067 4.87733 8.512 5.232C9.196 5.574 9.728 6.05533 10.108 6.676C10.5007 7.284 10.697 7.99333 10.697 8.804C10.697 9.602 10.488 10.3113 10.07 10.932C9.66467 11.5527 9.10733 12.0403 8.398 12.395C7.68867 12.737 6.89067 12.908 6.004 12.908H3.553V18H1.691ZM9.12 18L5.966 12.566L7.448 11.578L11.229 18H9.12ZM3.553 11.198H6.346C6.802 11.198 7.20733 11.0967 7.562 10.894C7.92933 10.6787 8.22067 10.3937 8.436 10.039C8.664 9.67167 8.778 9.26 8.778 8.804C8.778 8.09467 8.531 7.51833 8.037 7.075C7.543 6.63167 6.90333 6.41 6.118 6.41H3.553V11.198ZM17.4393 18.228C16.5147 18.228 15.6977 18.019 14.9883 17.601C14.279 17.1703 13.7217 16.5813 13.3163 15.834C12.911 15.0867 12.7083 14.2253 12.7083 13.25C12.7083 12.2747 12.911 11.4133 13.3163 10.666C13.7217 9.91867 14.279 9.336 14.9883 8.918C15.7103 8.48733 16.5337 8.272 17.4583 8.272C18.3323 8.272 19.0987 8.49367 19.7573 8.937C20.416 9.36767 20.929 9.98833 21.2963 10.799C21.6763 11.597 21.8663 12.5407 21.8663 13.63H14.1903L14.5323 13.345C14.5323 14.0163 14.6653 14.599 14.9313 15.093C15.1973 15.587 15.5583 15.967 16.0143 16.233C16.4703 16.4863 16.9897 16.613 17.5723 16.613C18.2057 16.613 18.7313 16.4673 19.1493 16.176C19.58 15.872 19.9157 15.492 20.1563 15.036L21.7143 15.758C21.461 16.252 21.1317 16.689 20.7263 17.069C20.321 17.4363 19.8397 17.7213 19.2823 17.924C18.7377 18.1267 18.1233 18.228 17.4393 18.228ZM14.6463 12.49L14.2853 12.205H20.2893L19.9473 12.49C19.9473 11.9327 19.8333 11.4577 19.6053 11.065C19.3773 10.6597 19.0733 10.3557 18.6933 10.153C18.3133 9.93767 17.889 9.83 17.4203 9.83C16.9643 9.83 16.521 9.93767 16.0903 10.153C15.6723 10.3557 15.324 10.6533 15.0453 11.046C14.7793 11.4387 14.6463 11.92 14.6463 12.49ZM26.3356 18L30.1356 8.5H32.0166L28.0456 18H26.3356ZM26.2216 18L22.2696 8.5H24.1126L27.9126 18H26.2216ZM33.5418 18V8.5H35.3468V18H33.5418ZM34.4538 6.486C34.1625 6.486 33.9092 6.37833 33.6938 6.163C33.4785 5.935 33.3708 5.67533 33.3708 5.384C33.3708 5.08 33.4785 4.82667 33.6938 4.624C33.9092 4.40867 34.1625 4.301 34.4538 4.301C34.7578 4.301 35.0112 4.40867 35.2138 4.624C35.4292 4.82667 35.5368 5.08 35.5368 5.384C35.5368 5.67533 35.4292 5.935 35.2138 6.163C35.0112 6.37833 34.7578 6.486 34.4538 6.486ZM42.1913 18.228C41.2666 18.228 40.4496 18.019 39.7403 17.601C39.0309 17.1703 38.4736 16.5813 38.0683 15.834C37.6629 15.0867 37.4603 14.2253 37.4603 13.25C37.4603 12.2747 37.6629 11.4133 38.0683 10.666C38.4736 9.91867 39.0309 9.336 39.7403 8.918C40.4623 8.48733 41.2856 8.272 42.2103 8.272C43.0843 8.272 43.8506 8.49367 44.5093 8.937C45.1679 9.36767 45.6809 9.98833 46.0483 10.799C46.4283 11.597 46.6183 12.5407 46.6183 13.63H38.9423L39.2843 13.345C39.2843 14.0163 39.4173 14.599 39.6833 15.093C39.9493 15.587 40.3103 15.967 40.7663 16.233C41.2223 16.4863 41.7416 16.613 42.3243 16.613C42.9576 16.613 43.4833 16.4673 43.9013 16.176C44.3319 15.872 44.6676 15.492 44.9083 15.036L46.4663 15.758C46.2129 16.252 45.8836 16.689 45.4783 17.069C45.0729 17.4363 44.5916 17.7213 44.0343 17.924C43.4896 18.1267 42.8753 18.228 42.1913 18.228ZM39.3983 12.49L39.0373 12.205H45.0413L44.6993 12.49C44.6993 11.9327 44.5853 11.4577 44.3573 11.065C44.1293 10.6597 43.8253 10.3557 43.4453 10.153C43.0653 9.93767 42.6409 9.83 42.1723 9.83C41.7163 9.83 41.2729 9.93767 40.8423 10.153C40.4243 10.3557 40.0759 10.6533 39.7973 11.046C39.5313 11.4387 39.3983 11.92 39.3983 12.49ZM56.8066 18L60.0176 8.5H61.8226L58.5926 18H56.8066ZM50.4036 18L53.5576 8.5H55.1916L52.0756 18H50.4036ZM50.2706 18L47.0406 8.5H48.8646L51.9996 18H50.2706ZM56.8066 18L53.6906 8.5H55.3436L58.4786 18H56.8066ZM67.2216 18.228C66.2969 18.228 65.4799 18.019 64.7706 17.601C64.0612 17.1703 63.5039 16.5813 63.0986 15.834C62.6932 15.0867 62.4906 14.2253 62.4906 13.25C62.4906 12.2747 62.6932 11.4133 63.0986 10.666C63.5039 9.91867 64.0612 9.336 64.7706 8.918C65.4926 8.48733 66.3159 8.272 67.2406 8.272C68.1146 8.272 68.8809 8.49367 69.5396 8.937C70.1982 9.36767 70.7112 9.98833 71.0786 10.799C71.4586 11.597 71.6486 12.5407 71.6486 13.63H63.9726L64.3146 13.345C64.3146 14.0163 64.4476 14.599 64.7136 15.093C64.9796 15.587 65.3406 15.967 65.7966 16.233C66.2526 16.4863 66.7719 16.613 67.3546 16.613C67.9879 16.613 68.5136 16.4673 68.9316 16.176C69.3622 15.872 69.6979 15.492 69.9386 15.036L71.4966 15.758C71.2432 16.252 70.9139 16.689 70.5086 17.069C70.1032 17.4363 69.6219 17.7213 69.0646 17.924C68.5199 18.1267 67.9056 18.228 67.2216 18.228ZM64.4286 12.49L64.0676 12.205H70.0716L69.7296 12.49C69.7296 11.9327 69.6156 11.4577 69.3876 11.065C69.1596 10.6597 68.8556 10.3557 68.4756 10.153C68.0956 9.93767 67.6712 9.83 67.2026 9.83C66.7466 9.83 66.3032 9.93767 65.8726 10.153C65.4546 10.3557 65.1062 10.6533 64.8276 11.046C64.5616 11.4387 64.4286 11.92 64.4286 12.49ZM80.3857 18L80.3097 16.233V4.7H82.0957V18H80.3857ZM77.1937 18.228C76.3324 18.228 75.5787 18.019 74.9327 17.601C74.2994 17.183 73.7991 16.6003 73.4317 15.853C73.0771 15.1057 72.8997 14.238 72.8997 13.25C72.8997 12.2493 73.0771 11.3817 73.4317 10.647C73.7991 9.89967 74.2994 9.317 74.9327 8.899C75.5787 8.481 76.3324 8.272 77.1937 8.272C77.9917 8.272 78.6821 8.481 79.2647 8.899C79.8601 9.317 80.3161 9.89967 80.6327 10.647C80.9494 11.3817 81.1077 12.2493 81.1077 13.25C81.1077 14.238 80.9494 15.1057 80.6327 15.853C80.3161 16.6003 79.8601 17.183 79.2647 17.601C78.6821 18.019 77.9917 18.228 77.1937 18.228ZM77.6117 16.594C78.1437 16.594 78.6124 16.4547 79.0177 16.176C79.4231 15.8847 79.7397 15.492 79.9677 14.998C80.1957 14.4913 80.3097 13.9087 80.3097 13.25C80.3097 12.5913 80.1957 12.015 79.9677 11.521C79.7397 11.0143 79.4231 10.6217 79.0177 10.343C78.6124 10.0517 78.1374 9.906 77.5927 9.906C77.0354 9.906 76.5414 10.0517 76.1107 10.343C75.6801 10.6217 75.3444 11.0143 75.1037 11.521C74.8631 12.015 74.7427 12.5913 74.7427 13.25C74.7427 13.9087 74.8631 14.4913 75.1037 14.998C75.3571 15.492 75.6991 15.8847 76.1297 16.176C76.5604 16.4547 77.0544 16.594 77.6117 16.594ZM89.2403 18V4.7H91.0453V16.233L90.9503 18H89.2403ZM94.1613 18.228C93.3633 18.228 92.6667 18.019 92.0713 17.601C91.4887 17.183 91.039 16.6003 90.7223 15.853C90.4057 15.1057 90.2473 14.238 90.2473 13.25C90.2473 12.2493 90.4057 11.3817 90.7223 10.647C91.039 9.89967 91.4887 9.317 92.0713 8.899C92.6667 8.481 93.3633 8.272 94.1613 8.272C95.01 8.272 95.7573 8.481 96.4033 8.899C97.0493 9.317 97.5497 9.89967 97.9043 10.647C98.2717 11.3817 98.4553 12.2493 98.4553 13.25C98.4553 14.238 98.2717 15.1057 97.9043 15.853C97.5497 16.6003 97.0493 17.183 96.4033 17.601C95.7573 18.019 95.01 18.228 94.1613 18.228ZM93.7243 16.594C94.2943 16.594 94.7947 16.4547 95.2253 16.176C95.656 15.8847 95.9917 15.492 96.2323 14.998C96.4857 14.4913 96.6123 13.9087 96.6123 13.25C96.6123 12.5913 96.492 12.015 96.2513 11.521C96.0107 11.0143 95.675 10.6217 95.2443 10.343C94.8137 10.0517 94.3133 9.906 93.7433 9.906C93.224 9.906 92.7553 10.0517 92.3373 10.343C91.932 10.6217 91.6153 11.0143 91.3873 11.521C91.1593 12.0277 91.0453 12.604 91.0453 13.25C91.0453 13.9087 91.1593 14.4913 91.3873 14.998C91.6153 15.492 91.932 15.8847 92.3373 16.176C92.7427 16.4547 93.205 16.594 93.7243 16.594ZM101.291 22.028C101.012 22.028 100.702 21.9773 100.36 21.876C100.031 21.7747 99.6886 21.6417 99.3339 21.477L99.9989 19.995C100.278 20.1217 100.518 20.2167 100.721 20.28C100.936 20.3433 101.107 20.375 101.234 20.375C101.551 20.375 101.817 20.2863 102.032 20.109C102.26 19.9317 102.444 19.6847 102.583 19.368L103.685 16.765L107.067 8.5H109.005L104.502 19.178C104.261 19.7607 104.008 20.2673 103.742 20.698C103.476 21.1287 103.147 21.458 102.754 21.686C102.374 21.914 101.886 22.028 101.291 22.028ZM103.191 18L99.0299 8.5H100.949L104.388 16.746L104.939 18H103.191ZM124.664 18L119.401 4.7H121.301L126.659 18H124.664ZM113.948 18L119.306 4.7H121.206L115.943 18H113.948ZM116.475 14.447V12.775H124.132V14.447H116.475ZM131.742 18.228C130.792 18.228 130.058 17.9873 129.538 17.506C129.019 17.012 128.759 16.309 128.759 15.397V5.536H130.564V15.131C130.564 15.5997 130.678 15.9607 130.906 16.214C131.147 16.4547 131.489 16.575 131.932 16.575C132.059 16.575 132.198 16.5497 132.35 16.499C132.502 16.4483 132.686 16.347 132.901 16.195L133.585 17.601C133.256 17.8163 132.939 17.9747 132.635 18.076C132.344 18.1773 132.046 18.228 131.742 18.228ZM127.144 10.058V8.5H133.262V10.058H127.144ZM135.367 18V4.7H137.172V18H135.367ZM145.505 18L145.429 16.347V13.041C145.429 12.3443 145.347 11.7617 145.182 11.293C145.03 10.8243 144.789 10.4697 144.46 10.229C144.143 9.98833 143.719 9.868 143.187 9.868C142.693 9.868 142.262 9.96933 141.895 10.172C141.54 10.3747 141.243 10.6913 141.002 11.122L139.406 10.514C139.634 10.0833 139.919 9.70333 140.261 9.374C140.603 9.032 141.015 8.766 141.496 8.576C141.977 8.37333 142.541 8.272 143.187 8.272C144.086 8.272 144.834 8.44933 145.429 8.804C146.024 9.15867 146.468 9.67167 146.759 10.343C147.063 11.0143 147.209 11.844 147.196 12.832L147.177 18H145.505ZM142.712 18.228C141.585 18.228 140.704 17.9747 140.071 17.468C139.45 16.9487 139.14 16.233 139.14 15.321C139.14 14.3457 139.463 13.6047 140.109 13.098C140.768 12.5787 141.68 12.319 142.845 12.319H145.486V13.744H143.339C142.465 13.744 141.851 13.8833 141.496 14.162C141.141 14.428 140.964 14.8017 140.964 15.283C140.964 15.7263 141.129 16.0747 141.458 16.328C141.8 16.5687 142.269 16.689 142.864 16.689C143.383 16.689 143.833 16.5813 144.213 16.366C144.593 16.138 144.891 15.8213 145.106 15.416C145.321 15.0107 145.429 14.5483 145.429 14.029H146.056C146.056 15.321 145.777 16.347 145.22 17.107C144.675 17.8543 143.839 18.228 142.712 18.228ZM152.87 18.228C152.199 18.228 151.597 18.1267 151.065 17.924C150.546 17.7213 150.102 17.449 149.735 17.107C149.38 16.765 149.114 16.3787 148.937 15.948L150.495 15.264C150.698 15.6567 151.002 15.9797 151.407 16.233C151.812 16.4863 152.262 16.613 152.756 16.613C153.301 16.613 153.75 16.5117 154.105 16.309C154.46 16.1063 154.637 15.8213 154.637 15.454C154.637 15.0993 154.504 14.8207 154.238 14.618C153.972 14.4153 153.586 14.2507 153.079 14.124L152.186 13.896C151.299 13.6553 150.609 13.2943 150.115 12.813C149.634 12.3317 149.393 11.787 149.393 11.179C149.393 10.2543 149.691 9.53867 150.286 9.032C150.881 8.52533 151.762 8.272 152.927 8.272C153.497 8.272 154.016 8.35433 154.485 8.519C154.966 8.68367 155.372 8.918 155.701 9.222C156.043 9.526 156.284 9.887 156.423 10.305L154.903 10.989C154.751 10.609 154.491 10.3303 154.124 10.153C153.757 9.963 153.326 9.868 152.832 9.868C152.325 9.868 151.926 9.982 151.635 10.21C151.344 10.4253 151.198 10.7293 151.198 11.122C151.198 11.3373 151.318 11.5463 151.559 11.749C151.812 11.939 152.18 12.0973 152.661 12.224L153.687 12.471C154.308 12.623 154.821 12.8573 155.226 13.174C155.631 13.478 155.935 13.8263 156.138 14.219C156.341 14.599 156.442 14.998 156.442 15.416C156.442 15.986 156.284 16.4863 155.967 16.917C155.663 17.335 155.239 17.658 154.694 17.886C154.162 18.114 153.554 18.228 152.87 18.228Z" fill="url(#paint0_linear_438_1775)"/>
<g clip-path="url(#clip0_438_1775)">
<path d="M166.333 11.8752C170.192 11.8752 171.875 10.2515 171.875 6.3335C171.875 10.2515 173.546 11.8752 177.417 11.8752C173.546 11.8752 171.875 13.5459 171.875 17.4168C171.875 13.5459 170.192 11.8752 166.333 11.8752Z" fill="url(#paint1_linear_438_1775)"/>
<path d="M161.583 5.146C164.064 5.146 165.146 4.10221 165.146 1.5835C165.146 4.10221 166.22 5.146 168.708 5.146C166.22 5.146 165.146 6.22004 165.146 8.7085C165.146 6.22004 164.064 5.146 161.583 5.146Z" fill="url(#paint2_linear_438_1775)"/>
<path fill-rule="evenodd" clip-rule="evenodd" d="M165.146 0.692871C165.638 0.692871 166.036 1.09162 166.036 1.5835C166.036 2.74136 166.287 3.34491 166.622 3.67744C166.957 4.01114 167.563 4.25537 168.708 4.25537C169.2 4.25537 169.599 4.65412 169.599 5.146C169.599 5.63788 169.2 6.03662 168.708 6.03662C167.568 6.03662 166.962 6.28576 166.624 6.62384C166.286 6.96193 166.036 7.56874 166.036 8.7085C166.036 9.20038 165.638 9.59912 165.146 9.59912C164.654 9.59912 164.255 9.20038 164.255 8.7085C164.255 7.57022 164.005 6.96299 163.666 6.62436C163.326 6.28543 162.718 6.03662 161.583 6.03662C161.091 6.03662 160.693 5.63788 160.693 5.146C160.693 4.65412 161.091 4.25537 161.583 4.25537C162.724 4.25537 163.33 4.01147 163.668 3.67693C164.003 3.34386 164.255 2.73988 164.255 1.5835C164.255 1.09162 164.654 0.692871 165.146 0.692871ZM165.144 4.69684C165.075 4.78161 165.001 4.86325 164.922 4.9416C164.847 5.01582 164.769 5.08558 164.689 5.1511C164.77 5.21764 164.849 5.28847 164.924 5.3638C165.002 5.44188 165.076 5.52316 165.144 5.60749C165.213 5.52335 165.286 5.44224 165.364 5.36431C165.44 5.28879 165.518 5.21779 165.599 5.1511C165.519 5.08543 165.441 5.0155 165.366 4.94109C165.287 4.86289 165.214 4.78142 165.144 4.69684ZM171.875 5.44287C172.367 5.44287 172.766 5.84162 172.766 6.3335C172.766 8.19098 173.165 9.28933 173.822 9.94174C174.48 10.5953 175.58 10.9845 177.417 10.9845C177.908 10.9845 178.307 11.3833 178.307 11.8752C178.307 12.367 177.908 12.7658 177.417 12.7658C175.586 12.7658 174.484 13.1641 173.824 13.8242C173.164 14.4842 172.766 15.5858 172.766 17.4168C172.766 17.9087 172.367 18.3075 171.875 18.3075C171.383 18.3075 170.984 17.9087 170.984 17.4168C170.984 15.5873 170.584 14.4853 169.922 13.8247C169.26 13.1638 168.158 12.7658 166.333 12.7658C165.841 12.7658 165.443 12.367 165.443 11.8752C165.443 11.3833 165.841 10.9845 166.333 10.9845C168.164 10.9845 169.264 10.5957 169.924 9.94123C170.582 9.28827 170.984 8.1895 170.984 6.3335C170.984 5.84162 171.383 5.44287 171.875 5.44287Z" fill="url(#paint3_linear_438_1775)"/>
</g>
<defs>
<linearGradient id="paint0_linear_438_1775" x1="-15" y1="-10.2895" x2="152.936" y2="82.2551" gradientUnits="userSpaceOnUse">
<stop stop-color="#DBD7FF"/>
<stop offset="0.269231" stop-color="#AD6CD9"/>
<stop offset="1" stop-color="#8DBCFF"/>
</linearGradient>
<linearGradient id="paint1_linear_438_1775" x1="161.604" y1="1.5835" x2="181.053" y2="2.8353" gradientUnits="userSpaceOnUse">
<stop stop-color="#C671FF"/>
<stop offset="1" stop-color="#69A7FF"/>
</linearGradient>
<linearGradient id="paint2_linear_438_1775" x1="161.604" y1="1.5835" x2="181.053" y2="2.8353" gradientUnits="userSpaceOnUse">
<stop stop-color="#C671FF"/>
<stop offset="1" stop-color="#69A7FF"/>
</linearGradient>
<linearGradient id="paint3_linear_438_1775" x1="165.588" y1="-5.02934" x2="179" y2="25.706" gradientUnits="userSpaceOnUse">
<stop offset="0.0832552" stop-color="#EEE0FF"/>
<stop offset="0.422361" stop-color="#B67AFF"/>
<stop offset="1" stop-color="#7E9AFE"/>
</linearGradient>
<clipPath id="clip0_438_1775">
<rect width="19" height="19" fill="white" transform="translate(160)"/>
</clipPath>
</defs>
</svg>
